<?xml version="1.0" encoding="UTF-8"?>
<svg width="1673px" height="335px" viewBox="0 0 1673 335" version="1.1" xmlns="http://www.w3.org/2000/svg" xmlns:xlink="http://www.w3.org/1999/xlink">
    <title>novicap-new-logo-black</title>
    <g id="Novicap-New-Logo-V2" stroke="none" stroke-width="1" fill="none" fill-rule="evenodd">
        <g id="novicap-dark" transform="translate(-124.000000, -373.000000)" fill-rule="nonzero">
            <g id="novicap-new-logo-black" transform="translate(124.000000, 373.000000)">
                <polygon id="Fill-55" fill="#FFFFFF" points="599.995601 260.419811 566.665756 260.419811 559.258813 256.71364 433.339382 63.9927468 429.63731 63.9927468 429.63731 256.71364 425.932438 260.419811 396.304666 260.419811 392.602594 256.71364 392.602594 4.69260971 396.304666 0.986438679 429.63731 0.986438679 437.042853 4.69260971 562.960885 197.414904 566.665756 197.414904 566.665756 4.69260971 570.369228 0.986438679 599.995601 0.986438679 603.700472 4.69260971 603.700472 256.71364"></polygon>
                <g id="Group-78">
                    <path d="M733.905626,230.470863 C767.310847,230.470863 785.872264,208.199812 785.872264,167.369553 C785.872264,126.539294 767.310847,104.266841 733.905626,104.266841 C700.496197,104.266841 681.934779,126.539294 681.934779,167.369553 C681.934779,208.199812 700.496197,230.470863 733.905626,230.470863 M733.905626,70.8602653 C789.582864,70.8602653 822.992294,107.980085 822.992294,167.369553 C822.992294,226.759021 789.582864,263.877439 733.905626,263.877439 C678.224179,263.877439 644.81475,226.759021 644.81475,167.369553 C644.81475,107.980085 678.224179,70.8602653 733.905626,70.8602653" id="Fill-56" fill="#FFFFFF"></path>
                    <polygon id="Fill-58" fill="#FFFFFF" points="945.47871 256.454176 941.76811 260.166018 908.358681 260.166018 904.648081 256.454176 841.545434 104.267262 841.545434 78.2843696 845.256034 74.5725278 867.528052 74.5725278 871.240055 78.2843696 923.210901 208.200233 926.921501 208.200233 978.88814 78.2843696 982.602948 74.5725278 1004.87076 74.5725278 1008.58557 78.2843696 1008.58557 104.267262"></polygon>
                    <path d="M1075.39124,260.165737 L1045.69662,260.165737 L1041.98602,256.453895 L1041.98602,78.2854918 L1045.69662,74.5722473 L1075.39124,74.5722473 L1079.10605,78.2854918 L1079.10605,256.453895 L1075.39124,260.165737 Z M1075.39124,44.8775134 L1045.69662,44.8775134 L1041.98602,41.1656716 L1041.98602,11.4709377 L1045.69662,7.75909594 L1075.39124,7.75909594 L1079.10605,11.4709377 L1079.10605,41.1656716 L1075.39124,44.8775134 Z" id="Fill-60" fill="#FFFFFF"></path>
                    <path d="M1201.59302,230.470863 C1231.29185,230.470863 1242.42786,215.623496 1246.13846,200.776129 L1249.84906,197.064287 L1279.54789,197.064287 L1283.25849,200.776129 C1279.54789,234.182705 1253.56387,263.877439 1201.59302,263.877439 C1145.91158,263.877439 1112.50636,226.759021 1112.50636,167.369553 C1112.50636,107.980085 1145.91158,70.8602653 1201.59302,70.8602653 C1253.56387,70.8602653 1279.54789,100.554999 1283.25849,133.961575 L1279.54789,137.674819 L1249.84906,137.674819 L1246.13846,133.961575 C1242.42786,119.115611 1231.29185,104.266841 1201.59302,104.266841 C1168.18359,104.266841 1149.62639,126.539294 1149.62639,167.369553 C1149.62639,208.199812 1168.18359,230.470863 1201.59302,230.470863" id="Fill-62" fill="#FFFFFF"></path>
                    <path d="M1424.3024,182.217061 L1420.5918,178.505219 C1420.5918,178.505219 1409.45579,174.793377 1390.89297,174.793377 C1357.48915,174.793377 1342.63693,185.928902 1342.63693,204.488111 C1342.63693,223.04732 1353.77434,230.471003 1376.04636,230.471003 C1405.74519,230.471003 1424.3024,215.623636 1424.3024,193.351183 L1424.3024,182.217061 Z M1457.71183,260.165737 L1431.72781,260.165737 L1428.013,256.453895 L1424.3024,241.606528 L1420.5918,241.606528 C1420.5918,241.606528 1405.74519,263.877579 1368.62095,263.877579 C1327.79032,263.877579 1305.5183,241.606528 1305.5183,204.488111 C1305.5183,163.656449 1338.92633,145.09724 1387.18237,145.09724 C1405.74519,145.09724 1420.5918,148.810485 1420.5918,148.810485 L1424.3024,145.09724 L1424.3024,137.67496 C1424.3024,111.692068 1413.16639,104.266981 1387.18237,104.266981 C1361.19975,104.266981 1350.06374,111.692068 1350.06374,126.539434 L1346.35314,130.249873 L1316.65431,130.249873 L1312.94371,126.539434 C1312.94371,100.555139 1331.50092,70.8604055 1387.18237,70.8604055 C1442.86381,70.8604055 1461.42243,96.8447005 1461.42243,152.522327 L1461.42243,256.453895 L1457.71183,260.165737 Z" id="Fill-64" fill="#FFFFFF"></path>
                    <path d="M1587.62393,104.267121 C1557.92931,104.267121 1539.36789,122.827733 1539.36789,167.369834 C1539.36789,211.911935 1557.92931,230.471144 1587.62393,230.471144 C1617.32276,230.471144 1635.87997,208.200093 1635.87997,167.369834 C1635.87997,126.538172 1617.32276,104.267121 1587.62393,104.267121 M1591.33874,263.877719 C1557.92931,263.877719 1543.0827,241.606669 1543.0827,241.606669 L1539.36789,241.606669 L1539.36789,330.690871 L1535.65729,334.402712 L1505.95847,334.402712 L1502.24787,330.690871 L1502.24787,78.2842293 L1505.95847,74.5723876 L1531.94669,74.5723876 L1535.65729,78.2842293 L1539.36789,93.1329991 L1543.0827,93.1329991 C1543.0827,93.1329991 1557.92931,70.8605458 1591.33874,70.8605458 C1643.30538,70.8605458 1673,111.690805 1673,167.369834 C1673,223.046057 1643.30538,263.877719 1591.33874,263.877719" id="Fill-66" fill="#FFFFFF"></path>
                    <polygon id="Fill-68" fill="#FF5F00" points="251.312839 0.00028056249 174.380667 0.00028056249 168.268347 0.00028056249 255.013619 131.805733 255.013619 3.70230262"></polygon>
                    <polygon id="Fill-70" fill="#FFFFFF" points="3.74791649 0.000701406225 1.86806617 1.88047009 3.70583028 0.000701406225"></polygon>
                    <polygon id="Fill-72" fill="#FFFFFF" points="3.70077994 262.61126 80.6329525 262.61126 86.7452717 262.61126 0 130.805808 0 258.909238"></polygon>
                    <polygon id="Fill-74" fill="#FFFFFF" points="0.00785609085 3.71983777 1.86806617 1.88075065 0.0288991913 3.74087996"></polygon>
                    <polygon id="Fill-76" fill="#FFFFFF" points="255.003799 258.224104 253.770673 259.478219 251.263739 261.964002 177.046126 261.964002 169.75399 258.224104 85.0484964 133.093234 0.028758904 3.7413008 1.86792589 1.88117149 3.7477762 0 77.9653888 0 85.2575245 3.7413008 169.963018 132.591027"></polygon>
                </g>
            </g>
        </g>
    </g>
</svg>