<?xml version="1.0" encoding="utf-8"?>
<!-- Generator: Adobe Illustrator 19.1.0, SVG Export Plug-In . SVG Version: 6.00 Build 0)  -->
<svg version="1.1" id="Layer_1" xmlns="http://www.w3.org/2000/svg" xmlns:xlink="http://www.w3.org/1999/xlink" x="0px" y="0px"
	 viewBox="-258 390.1 94.3 12.9" style="enable-background:new -258 390.1 94.3 12.9;" xml:space="preserve">
<style type="text/css">
	.st0{fill:#FFFFFF;}
</style>
<g>
	<rect x="-244" y="390.1" class="st0" width="3.9" height="12.7"/>
	<polygon class="st0" points="-247.7,402.9 -258,402.9 -258,390.1 	"/>
	<polygon class="st0" points="-252.6,390.1 -247.6,395.9 -247.6,390.1 	"/>
	<g>
		<g>
			<path class="st0" d="M-233.4,403v-12.3h1.8l4,6.3c0.9,1.4,1.6,2.8,2.2,4l0,0c-0.1-1.7-0.2-3.2-0.2-5.1v-5.2h1.5v12.4h-1.6l-4-6.3
				c-0.9-1.4-1.7-2.8-2.3-4.1h-0.1c0.1,1.6,0.1,3,0.1,5.1v5.3h-1.4V403z"/>
			<path class="st0" d="M-211.3,398.1c0,3.3-2,5.1-4.5,5.1c-2.6,0-4.4-2-4.4-4.9c0-3.1,1.9-5.1,4.5-5.1
				C-213.1,393.2-211.3,395.2-211.3,398.1z M-218.9,398.2c0,2.1,1.1,3.9,3.1,3.9s3.1-1.8,3.1-4c0-1.9-1-3.9-3.1-3.9
				S-218.9,396.1-218.9,398.2z"/>
			<path class="st0" d="M-206.1,403l-3.2-9.7h1.4l1.5,4.8c0.4,1.3,0.8,2.5,1,3.6l0,0c0.3-1.1,0.7-2.3,1.1-3.6l1.7-4.8h1.3l-3.5,9.7
				H-206.1z"/>
			<path class="st0" d="M-197.4,393.3v9.7h-1.3v-9.7H-197.4z"/>
			<path class="st0" d="M-184.7,402.6c-0.6,0.3-1.8,0.6-3.3,0.6c-3.5,0-6.2-2.2-6.2-6.3c0-3.9,2.6-6.5,6.5-6.5c1.6,0,2.5,0.3,3,0.6
				l-0.4,1.3c-0.6-0.3-1.5-0.5-2.5-0.5c-2.9,0-4.9,1.9-4.9,5.1c0,3,1.8,5,4.8,5c1,0,2-0.2,2.6-0.5L-184.7,402.6z"/>
			<path class="st0" d="M-179.6,400l-1,3h-1.3l3.3-9.7h1.5l3.3,9.7h-1.3l-1-3H-179.6z M-176.4,399l-1-2.8c-0.2-0.6-0.4-1.2-0.5-1.8
				l0,0c-0.1,0.6-0.3,1.2-0.5,1.8l-1,2.8H-176.4z"/>
			<path class="st0" d="M-170.8,393.4c0.6-0.1,1.4-0.2,2.4-0.2c1.2,0,2.2,0.3,2.7,0.8s0.9,1.2,0.9,2c0,0.9-0.3,1.6-0.8,2.1
				c-0.7,0.7-1.8,1.1-3,1.1c-0.4,0-0.7,0-1-0.1v3.9h-1.3v-9.6H-170.8z M-169.6,398.1c0.3,0.1,0.6,0.1,1,0.1c1.5,0,2.5-0.7,2.5-2.1
				c0-1.3-0.9-1.9-2.3-1.9c-0.6,0-1,0-1.2,0.1V398.1z"/>
		</g>
	</g>
</g>
</svg>
